<mxfile host="app.diagrams.net" modified="2021-04-27T19:24:34.696Z" agent="5.0 (Macintosh; Intel Mac OS X 10_15_6) AppleWebKit/605.1.15 (KHTML, like Gecko) Version/14.0.3 Safari/605.1.15" etag="EEy-ZSCjl7Ka3znf0tvD" version="14.6.6" type="github">
  <diagram id="C5RBs43oDa-KdzZeNtuy" name="Page-1">
    <mxGraphModel dx="1950" dy="1074" grid="1" gridSize="10" guides="1" tooltips="1" connect="1" arrows="1" fold="1" page="1" pageScale="1" pageWidth="827" pageHeight="1169" math="0" shadow="0">
      <root>
        <mxCell id="WIyWlLk6GJQsqaUBKTNV-0" />
        <mxCell id="WIyWlLk6GJQsqaUBKTNV-1" parent="WIyWlLk6GJQsqaUBKTNV-0" />
        <mxCell id="EZMv2mc8GbGtapVm2YlH-1" value="&lt;font style=&quot;font-size: 23px&quot;&gt;&lt;b&gt;Covid 19 TRACKER&lt;/b&gt;&lt;/font&gt;" style="text;html=1;strokeColor=none;fillColor=none;align=center;verticalAlign=middle;whiteSpace=wrap;rounded=0;" vertex="1" parent="WIyWlLk6GJQsqaUBKTNV-1">
          <mxGeometry x="-790" y="20" width="220" height="100" as="geometry" />
        </mxCell>
        <mxCell id="EZMv2mc8GbGtapVm2YlH-3" value="" style="rounded=1;whiteSpace=wrap;html=1;shadow=1;sketch=0;glass=0;" vertex="1" parent="WIyWlLk6GJQsqaUBKTNV-1">
          <mxGeometry x="-383" y="50" width="153" height="40" as="geometry" />
        </mxCell>
        <mxCell id="EZMv2mc8GbGtapVm2YlH-4" value="&lt;font style=&quot;font-size: 18px&quot;&gt;WORLDWIDE&lt;/font&gt;" style="text;html=1;strokeColor=none;fillColor=none;align=center;verticalAlign=middle;whiteSpace=wrap;rounded=0;shadow=1;glass=0;sketch=0;" vertex="1" parent="WIyWlLk6GJQsqaUBKTNV-1">
          <mxGeometry x="-373.25" y="60" width="133.5" height="20" as="geometry" />
        </mxCell>
        <mxCell id="EZMv2mc8GbGtapVm2YlH-5" value="" style="rounded=1;whiteSpace=wrap;html=1;shadow=1;glass=0;sketch=0;" vertex="1" parent="WIyWlLk6GJQsqaUBKTNV-1">
          <mxGeometry x="-790" y="150" width="150" height="100" as="geometry" />
        </mxCell>
        <mxCell id="EZMv2mc8GbGtapVm2YlH-6" value="" style="rounded=1;whiteSpace=wrap;html=1;shadow=1;glass=0;sketch=0;" vertex="1" parent="WIyWlLk6GJQsqaUBKTNV-1">
          <mxGeometry x="-580" y="150" width="140" height="100" as="geometry" />
        </mxCell>
        <mxCell id="EZMv2mc8GbGtapVm2YlH-7" value="" style="rounded=1;whiteSpace=wrap;html=1;shadow=1;glass=0;sketch=0;" vertex="1" parent="WIyWlLk6GJQsqaUBKTNV-1">
          <mxGeometry x="-370" y="150" width="140" height="100" as="geometry" />
        </mxCell>
        <mxCell id="EZMv2mc8GbGtapVm2YlH-8" value="&lt;font style=&quot;font-size: 16px&quot;&gt;TOTALCASES&lt;/font&gt;" style="text;html=1;strokeColor=none;fillColor=none;align=center;verticalAlign=middle;whiteSpace=wrap;rounded=0;shadow=1;glass=0;sketch=0;" vertex="1" parent="WIyWlLk6GJQsqaUBKTNV-1">
          <mxGeometry x="-785" y="140" width="140" height="70" as="geometry" />
        </mxCell>
        <mxCell id="EZMv2mc8GbGtapVm2YlH-16" value="&lt;font style=&quot;font-size: 15px&quot;&gt;RECOVERED&lt;/font&gt;" style="text;html=1;strokeColor=none;fillColor=none;align=center;verticalAlign=middle;whiteSpace=wrap;rounded=0;shadow=1;glass=0;sketch=0;rotation=0;" vertex="1" parent="WIyWlLk6GJQsqaUBKTNV-1">
          <mxGeometry x="-575" y="160" width="130" height="30" as="geometry" />
        </mxCell>
        <mxCell id="EZMv2mc8GbGtapVm2YlH-26" value="&lt;span style=&quot;font-size: 15px&quot;&gt;DEATHS&lt;/span&gt;" style="text;html=1;strokeColor=none;fillColor=none;align=center;verticalAlign=middle;whiteSpace=wrap;rounded=0;shadow=1;glass=0;sketch=0;rotation=0;" vertex="1" parent="WIyWlLk6GJQsqaUBKTNV-1">
          <mxGeometry x="-365" y="160" width="130" height="30" as="geometry" />
        </mxCell>
        <mxCell id="EZMv2mc8GbGtapVm2YlH-27" value="2000" style="text;html=1;strokeColor=none;fillColor=none;align=center;verticalAlign=middle;whiteSpace=wrap;rounded=0;shadow=1;glass=0;sketch=0;" vertex="1" parent="WIyWlLk6GJQsqaUBKTNV-1">
          <mxGeometry x="-770" y="190" width="40" height="20" as="geometry" />
        </mxCell>
        <mxCell id="EZMv2mc8GbGtapVm2YlH-30" value="2000" style="text;html=1;strokeColor=none;fillColor=none;align=center;verticalAlign=middle;whiteSpace=wrap;rounded=0;shadow=1;glass=0;sketch=0;" vertex="1" parent="WIyWlLk6GJQsqaUBKTNV-1">
          <mxGeometry x="-350" y="190" width="40" height="20" as="geometry" />
        </mxCell>
        <mxCell id="EZMv2mc8GbGtapVm2YlH-31" value="2000" style="text;html=1;strokeColor=none;fillColor=none;align=center;verticalAlign=middle;whiteSpace=wrap;rounded=0;shadow=1;glass=0;sketch=0;" vertex="1" parent="WIyWlLk6GJQsqaUBKTNV-1">
          <mxGeometry x="-560" y="190" width="40" height="20" as="geometry" />
        </mxCell>
        <mxCell id="EZMv2mc8GbGtapVm2YlH-34" value="1.2M" style="text;html=1;strokeColor=none;fillColor=none;align=center;verticalAlign=middle;whiteSpace=wrap;rounded=0;shadow=1;glass=0;sketch=0;" vertex="1" parent="WIyWlLk6GJQsqaUBKTNV-1">
          <mxGeometry x="-770" y="210" width="40" height="20" as="geometry" />
        </mxCell>
        <mxCell id="EZMv2mc8GbGtapVm2YlH-35" value="1.2M" style="text;html=1;strokeColor=none;fillColor=none;align=center;verticalAlign=middle;whiteSpace=wrap;rounded=0;shadow=1;glass=0;sketch=0;" vertex="1" parent="WIyWlLk6GJQsqaUBKTNV-1">
          <mxGeometry x="-560" y="210" width="40" height="20" as="geometry" />
        </mxCell>
        <mxCell id="EZMv2mc8GbGtapVm2YlH-36" value="1.2M" style="text;html=1;strokeColor=none;fillColor=none;align=center;verticalAlign=middle;whiteSpace=wrap;rounded=0;shadow=1;glass=0;sketch=0;" vertex="1" parent="WIyWlLk6GJQsqaUBKTNV-1">
          <mxGeometry x="-350" y="210" width="40" height="20" as="geometry" />
        </mxCell>
        <mxCell id="EZMv2mc8GbGtapVm2YlH-39" value="" style="whiteSpace=wrap;html=1;aspect=fixed;rounded=1;shadow=1;glass=0;sketch=0;" vertex="1" parent="WIyWlLk6GJQsqaUBKTNV-1">
          <mxGeometry x="-790" y="270" width="580" height="580" as="geometry" />
        </mxCell>
        <mxCell id="EZMv2mc8GbGtapVm2YlH-41" value="" style="rounded=1;whiteSpace=wrap;html=1;shadow=1;glass=0;sketch=0;direction=south;" vertex="1" parent="WIyWlLk6GJQsqaUBKTNV-1">
          <mxGeometry x="-195" y="50" width="170" height="630" as="geometry" />
        </mxCell>
        <mxCell id="EZMv2mc8GbGtapVm2YlH-43" value="" style="rounded=0;whiteSpace=wrap;html=1;shadow=1;glass=0;sketch=0;" vertex="1" parent="WIyWlLk6GJQsqaUBKTNV-1">
          <mxGeometry x="-180" y="90" width="140" height="330" as="geometry" />
        </mxCell>
        <mxCell id="EZMv2mc8GbGtapVm2YlH-44" value="" style="rounded=0;whiteSpace=wrap;html=1;shadow=1;glass=0;sketch=0;" vertex="1" parent="WIyWlLk6GJQsqaUBKTNV-1">
          <mxGeometry x="-190" y="460" width="160" height="180" as="geometry" />
        </mxCell>
        <mxCell id="EZMv2mc8GbGtapVm2YlH-45" style="edgeStyle=orthogonalEdgeStyle;rounded=0;orthogonalLoop=1;jettySize=auto;html=1;exitX=1;exitY=0.5;exitDx=0;exitDy=0;" edge="1" parent="WIyWlLk6GJQsqaUBKTNV-1" source="EZMv2mc8GbGtapVm2YlH-41" target="EZMv2mc8GbGtapVm2YlH-41">
          <mxGeometry relative="1" as="geometry" />
        </mxCell>
        <mxCell id="EZMv2mc8GbGtapVm2YlH-46" value="" style="shape=step;perimeter=stepPerimeter;whiteSpace=wrap;html=1;fixedSize=1;rounded=1;shadow=1;glass=0;sketch=0;direction=north;" vertex="1" parent="WIyWlLk6GJQsqaUBKTNV-1">
          <mxGeometry x="-180" y="540" width="35" height="90" as="geometry" />
        </mxCell>
        <mxCell id="EZMv2mc8GbGtapVm2YlH-48" value="" style="shape=step;perimeter=stepPerimeter;whiteSpace=wrap;html=1;fixedSize=1;rounded=1;shadow=1;glass=0;sketch=0;direction=north;" vertex="1" parent="WIyWlLk6GJQsqaUBKTNV-1">
          <mxGeometry x="-127.5" y="510" width="35" height="120" as="geometry" />
        </mxCell>
        <mxCell id="EZMv2mc8GbGtapVm2YlH-49" value="" style="shape=step;perimeter=stepPerimeter;whiteSpace=wrap;html=1;fixedSize=1;rounded=1;shadow=1;glass=0;sketch=0;direction=north;" vertex="1" parent="WIyWlLk6GJQsqaUBKTNV-1">
          <mxGeometry x="-75" y="490" width="35" height="140" as="geometry" />
        </mxCell>
        <mxCell id="EZMv2mc8GbGtapVm2YlH-50" value="&lt;font style=&quot;font-size: 14px&quot;&gt;GRAPH&lt;/font&gt;" style="text;html=1;strokeColor=none;fillColor=none;align=center;verticalAlign=middle;whiteSpace=wrap;rounded=0;shadow=1;glass=0;sketch=0;" vertex="1" parent="WIyWlLk6GJQsqaUBKTNV-1">
          <mxGeometry x="-160" y="450" width="90" height="50" as="geometry" />
        </mxCell>
        <mxCell id="EZMv2mc8GbGtapVm2YlH-51" value="CASES BY COUNTRY" style="text;html=1;strokeColor=none;fillColor=none;align=center;verticalAlign=middle;whiteSpace=wrap;rounded=0;shadow=1;glass=0;sketch=0;" vertex="1" parent="WIyWlLk6GJQsqaUBKTNV-1">
          <mxGeometry x="-160" y="100" width="100" height="40" as="geometry" />
        </mxCell>
        <mxCell id="EZMv2mc8GbGtapVm2YlH-52" value="" style="shape=table;html=1;whiteSpace=wrap;startSize=0;container=1;collapsible=0;childLayout=tableLayout;rounded=0;shadow=0;glass=0;sketch=0;" vertex="1" parent="WIyWlLk6GJQsqaUBKTNV-1">
          <mxGeometry x="-170" y="140" width="120" height="250" as="geometry" />
        </mxCell>
        <mxCell id="EZMv2mc8GbGtapVm2YlH-53" value="" style="shape=partialRectangle;html=1;whiteSpace=wrap;collapsible=0;dropTarget=0;pointerEvents=0;fillColor=none;top=0;left=0;bottom=0;right=0;points=[[0,0.5],[1,0.5]];portConstraint=eastwest;" vertex="1" parent="EZMv2mc8GbGtapVm2YlH-52">
          <mxGeometry width="120" height="11" as="geometry" />
        </mxCell>
        <mxCell id="EZMv2mc8GbGtapVm2YlH-54" value="" style="shape=partialRectangle;html=1;whiteSpace=wrap;connectable=0;fillColor=none;top=0;left=0;bottom=0;right=0;overflow=hidden;" vertex="1" parent="EZMv2mc8GbGtapVm2YlH-53">
          <mxGeometry width="40" height="11" as="geometry" />
        </mxCell>
        <mxCell id="EZMv2mc8GbGtapVm2YlH-55" value="" style="shape=partialRectangle;html=1;whiteSpace=wrap;connectable=0;fillColor=none;top=0;left=0;bottom=0;right=0;overflow=hidden;" vertex="1" parent="EZMv2mc8GbGtapVm2YlH-53">
          <mxGeometry x="40" width="40" height="11" as="geometry" />
        </mxCell>
        <mxCell id="EZMv2mc8GbGtapVm2YlH-56" value="" style="shape=partialRectangle;html=1;whiteSpace=wrap;connectable=0;fillColor=none;top=0;left=0;bottom=0;right=0;overflow=hidden;" vertex="1" parent="EZMv2mc8GbGtapVm2YlH-53">
          <mxGeometry x="80" width="40" height="11" as="geometry" />
        </mxCell>
        <mxCell id="EZMv2mc8GbGtapVm2YlH-57" value="" style="shape=partialRectangle;html=1;whiteSpace=wrap;collapsible=0;dropTarget=0;pointerEvents=0;fillColor=none;top=0;left=0;bottom=0;right=0;points=[[0,0.5],[1,0.5]];portConstraint=eastwest;" vertex="1" parent="EZMv2mc8GbGtapVm2YlH-52">
          <mxGeometry y="11" width="120" height="98" as="geometry" />
        </mxCell>
        <mxCell id="EZMv2mc8GbGtapVm2YlH-58" value="" style="shape=partialRectangle;html=1;whiteSpace=wrap;connectable=0;fillColor=none;top=0;left=0;bottom=0;right=0;overflow=hidden;" vertex="1" parent="EZMv2mc8GbGtapVm2YlH-57">
          <mxGeometry width="40" height="98" as="geometry" />
        </mxCell>
        <mxCell id="EZMv2mc8GbGtapVm2YlH-59" value="" style="shape=partialRectangle;html=1;whiteSpace=wrap;connectable=0;fillColor=none;top=0;left=0;bottom=0;right=0;overflow=hidden;" vertex="1" parent="EZMv2mc8GbGtapVm2YlH-57">
          <mxGeometry x="40" width="40" height="98" as="geometry" />
        </mxCell>
        <mxCell id="EZMv2mc8GbGtapVm2YlH-60" value="" style="shape=partialRectangle;html=1;whiteSpace=wrap;connectable=0;fillColor=none;top=0;left=0;bottom=0;right=0;overflow=hidden;" vertex="1" parent="EZMv2mc8GbGtapVm2YlH-57">
          <mxGeometry x="80" width="40" height="98" as="geometry" />
        </mxCell>
        <mxCell id="EZMv2mc8GbGtapVm2YlH-61" value="" style="shape=partialRectangle;html=1;whiteSpace=wrap;collapsible=0;dropTarget=0;pointerEvents=0;fillColor=none;top=0;left=0;bottom=0;right=0;points=[[0,0.5],[1,0.5]];portConstraint=eastwest;" vertex="1" parent="EZMv2mc8GbGtapVm2YlH-52">
          <mxGeometry y="109" width="120" height="141" as="geometry" />
        </mxCell>
        <mxCell id="EZMv2mc8GbGtapVm2YlH-62" value="" style="shape=partialRectangle;html=1;whiteSpace=wrap;connectable=0;fillColor=none;top=0;left=0;bottom=0;right=0;overflow=hidden;" vertex="1" parent="EZMv2mc8GbGtapVm2YlH-61">
          <mxGeometry width="40" height="141" as="geometry" />
        </mxCell>
        <mxCell id="EZMv2mc8GbGtapVm2YlH-63" value="" style="shape=partialRectangle;html=1;whiteSpace=wrap;connectable=0;fillColor=none;top=0;left=0;bottom=0;right=0;overflow=hidden;" vertex="1" parent="EZMv2mc8GbGtapVm2YlH-61">
          <mxGeometry x="40" width="40" height="141" as="geometry" />
        </mxCell>
        <mxCell id="EZMv2mc8GbGtapVm2YlH-64" value="" style="shape=partialRectangle;html=1;whiteSpace=wrap;connectable=0;fillColor=none;top=0;left=0;bottom=0;right=0;overflow=hidden;" vertex="1" parent="EZMv2mc8GbGtapVm2YlH-61">
          <mxGeometry x="80" width="40" height="141" as="geometry" />
        </mxCell>
      </root>
    </mxGraphModel>
  </diagram>
</mxfile>
